<?xml version="1.0" encoding="UTF-8"?>
<!--Generator: Apple Native CoreSVG 341-->
<!DOCTYPE svg
PUBLIC "-//W3C//DTD SVG 1.1//EN"
       "http://www.w3.org/Graphics/SVG/1.1/DTD/svg11.dtd">
<svg version="1.1" xmlns="http://www.w3.org/2000/svg" xmlns:xlink="http://www.w3.org/1999/xlink" viewBox="0 0 3300 2200">
 <!--glyph: "100659", point size: 100.0, font version: "20.0d10e1", template writer version: "138.0.0"-->
 <style>.monochrome-0 {-sfsymbols-motion-group:0;-sfsymbols-layer-tags:car.fill}

.multicolor-0:systemBlueColor {-sfsymbols-motion-group:0;-sfsymbols-layer-tags:car.fill}

.hierarchical-0:primary {-sfsymbols-motion-group:0;-sfsymbols-layer-tags:car.fill}

.SFSymbolsPreviewWireframe {fill:none;opacity:1.0;stroke:black;stroke-width:0.5}
</style>
 <g id="Notes">
  <rect height="2200" id="artboard" style="fill:white;opacity:1" width="3300" x="0" y="0"/>
  <line style="fill:none;stroke:black;opacity:1;stroke-width:0.5;" x1="263" x2="3036" y1="292" y2="292"/>
  <text style="stroke:none;fill:black;font-family:sans-serif;font-size:13;font-weight:bold;" transform="matrix(1 0 0 1 263 322)">Weight/Scale Variations</text>
  <text style="stroke:none;fill:black;font-family:sans-serif;font-size:13;text-anchor:middle;" transform="matrix(1 0 0 1 559.711 322)">Ultralight</text>
  <text style="stroke:none;fill:black;font-family:sans-serif;font-size:13;text-anchor:middle;" transform="matrix(1 0 0 1 856.422 322)">Thin</text>
  <text style="stroke:none;fill:black;font-family:sans-serif;font-size:13;text-anchor:middle;" transform="matrix(1 0 0 1 1153.13 322)">Light</text>
  <text style="stroke:none;fill:black;font-family:sans-serif;font-size:13;text-anchor:middle;" transform="matrix(1 0 0 1 1449.84 322)">Regular</text>
  <text style="stroke:none;fill:black;font-family:sans-serif;font-size:13;text-anchor:middle;" transform="matrix(1 0 0 1 1746.56 322)">Medium</text>
  <text style="stroke:none;fill:black;font-family:sans-serif;font-size:13;text-anchor:middle;" transform="matrix(1 0 0 1 2043.27 322)">Semibold</text>
  <text style="stroke:none;fill:black;font-family:sans-serif;font-size:13;text-anchor:middle;" transform="matrix(1 0 0 1 2339.98 322)">Bold</text>
  <text style="stroke:none;fill:black;font-family:sans-serif;font-size:13;text-anchor:middle;" transform="matrix(1 0 0 1 2636.69 322)">Heavy</text>
  <text style="stroke:none;fill:black;font-family:sans-serif;font-size:13;text-anchor:middle;" transform="matrix(1 0 0 1 2933.4 322)">Black</text>
  <line style="fill:none;stroke:black;opacity:1;stroke-width:0.5;" x1="263" x2="3036" y1="1903" y2="1903"/>
  <g transform="matrix(0.2 0 0 0.2 263 1933)">
   <path d="m46.2402 4.15039c21.7773 0 39.4531-17.627 39.4531-39.4043s-17.6758-39.4043-39.4531-39.4043c-21.7285 0-39.4043 17.627-39.4043 39.4043s17.6758 39.4043 39.4043 39.4043Zm0-7.42188c-17.6758 0-31.9336-14.3066-31.9336-31.9824s14.2578-31.9824 31.9336-31.9824 31.9824 14.3066 31.9824 31.9824-14.3066 31.9824-31.9824 31.9824Zm-17.9688-31.9824c0 2.14844 1.51367 3.61328 3.75977 3.61328h10.498v10.5957c0 2.19727 1.46484 3.71094 3.61328 3.71094 2.24609 0 3.71094-1.51367 3.71094-3.71094v-10.5957h10.5957c2.19727 0 3.71094-1.46484 3.71094-3.61328 0-2.19727-1.51367-3.71094-3.71094-3.71094h-10.5957v-10.5469c0-2.24609-1.46484-3.75977-3.71094-3.75977-2.14844 0-3.61328 1.51367-3.61328 3.75977v10.5469h-10.498c-2.24609 0-3.75977 1.51367-3.75977 3.71094Z"/>
  </g>
  <g transform="matrix(0.2 0 0 0.2 281.506 1933)">
   <path d="m58.5449 14.5508c27.4902 0 49.8047-22.3145 49.8047-49.8047s-22.3145-49.8047-49.8047-49.8047-49.8047 22.3145-49.8047 49.8047 22.3145 49.8047 49.8047 49.8047Zm0-8.30078c-22.9492 0-41.5039-18.5547-41.5039-41.5039s18.5547-41.5039 41.5039-41.5039 41.5039 18.5547 41.5039 41.5039-18.5547 41.5039-41.5039 41.5039Zm-22.6562-41.5039c0 2.39258 1.66016 4.00391 4.15039 4.00391h14.3555v14.4043c0 2.44141 1.66016 4.15039 4.05273 4.15039 2.44141 0 4.15039-1.66016 4.15039-4.15039v-14.4043h14.4043c2.44141 0 4.15039-1.61133 4.15039-4.00391 0-2.44141-1.70898-4.15039-4.15039-4.15039h-14.4043v-14.3555c0-2.49023-1.70898-4.19922-4.15039-4.19922-2.39258 0-4.05273 1.70898-4.05273 4.19922v14.3555h-14.3555c-2.49023 0-4.15039 1.70898-4.15039 4.15039Z"/>
  </g>
  <g transform="matrix(0.2 0 0 0.2 304.924 1933)">
   <path d="m74.8535 28.3203c35.1074 0 63.623-28.4668 63.623-63.5742s-28.5156-63.623-63.623-63.623-63.5742 28.5156-63.5742 63.623 28.4668 63.5742 63.5742 63.5742Zm0-9.08203c-30.127 0-54.4922-24.3652-54.4922-54.4922s24.3652-54.4922 54.4922-54.4922 54.4922 24.3652 54.4922 54.4922-24.3652 54.4922-54.4922 54.4922Zm-28.8574-54.4922c0 2.58789 1.85547 4.39453 4.58984 4.39453h19.7266v19.7754c0 2.68555 1.85547 4.58984 4.44336 4.58984 2.68555 0 4.54102-1.85547 4.54102-4.58984v-19.7754h19.7754c2.68555 0 4.58984-1.80664 4.58984-4.39453 0-2.73438-1.85547-4.58984-4.58984-4.58984h-19.7754v-19.7266c0-2.73438-1.85547-4.63867-4.54102-4.63867-2.58789 0-4.44336 1.9043-4.44336 4.63867v19.7266h-19.7266c-2.73438 0-4.58984 1.85547-4.58984 4.58984Z"/>
  </g>
  <text style="stroke:none;fill:black;font-family:sans-serif;font-size:13;font-weight:bold;" transform="matrix(1 0 0 1 263 1953)">Design Variations</text>
  <text style="stroke:none;fill:black;font-family:sans-serif;font-size:13;" transform="matrix(1 0 0 1 263 1971)">Symbols are supported in up to nine weights and three scales.</text>
  <text style="stroke:none;fill:black;font-family:sans-serif;font-size:13;" transform="matrix(1 0 0 1 263 1989)">For optimal layout with text and other symbols, vertically align</text>
  <text style="stroke:none;fill:black;font-family:sans-serif;font-size:13;" transform="matrix(1 0 0 1 263 2007)">symbols with the adjacent text.</text>
  <line style="fill:none;stroke:#00AEEF;stroke-width:0.5;opacity:1.0;" x1="776" x2="776" y1="1919" y2="1933"/>
  <g transform="matrix(0.2 0 0 0.2 776 1933)">
   <path d="m16.5527 0.78125c2.58789 0 3.85742-0.976562 4.78516-3.71094l6.29883-17.2363h28.8086l6.29883 17.2363c0.927734 2.73438 2.19727 3.71094 4.73633 3.71094 2.58789 0 4.24805-1.5625 4.24805-4.00391 0-0.830078-0.146484-1.61133-0.537109-2.63672l-22.9004-60.9863c-1.12305-2.97852-3.125-4.49219-6.25-4.49219-3.02734 0-5.07812 1.46484-6.15234 4.44336l-22.9004 61.084c-0.390625 1.02539-0.537109 1.80664-0.537109 2.63672 0 2.44141 1.5625 3.95508 4.10156 3.95508Zm13.4766-28.3691 11.8652-32.8613h0.244141l11.8652 32.8613Z"/>
  </g>
  <line style="fill:none;stroke:#00AEEF;stroke-width:0.5;opacity:1.0;" x1="792.836" x2="792.836" y1="1919" y2="1933"/>
  <text style="stroke:none;fill:black;font-family:sans-serif;font-size:13;font-weight:bold;" transform="matrix(1 0 0 1 776 1953)">Margins</text>
  <text style="stroke:none;fill:black;font-family:sans-serif;font-size:13;" transform="matrix(1 0 0 1 776 1971)">Leading and trailing margins on the left and right side of each symbol</text>
  <text style="stroke:none;fill:black;font-family:sans-serif;font-size:13;" transform="matrix(1 0 0 1 776 1989)">can be adjusted by modifying the x-location of the margin guidelines.</text>
  <text style="stroke:none;fill:black;font-family:sans-serif;font-size:13;" transform="matrix(1 0 0 1 776 2007)">Modifications are automatically applied proportionally to all</text>
  <text style="stroke:none;fill:black;font-family:sans-serif;font-size:13;" transform="matrix(1 0 0 1 776 2025)">scales and weights.</text>
  <g transform="matrix(0.2 0 0 0.2 1289 1933)">
   <path d="m14.209 9.32617 8.49609 8.54492c4.29688 4.3457 9.22852 4.05273 13.8672-1.07422l53.4668-58.9355-4.83398-4.88281-53.0762 58.3984c-1.75781 2.00195-3.41797 2.49023-5.76172 0.146484l-5.85938-5.81055c-2.34375-2.29492-1.80664-4.00391 0.195312-5.81055l57.373-54.0039-4.88281-4.83398-57.959 54.4434c-4.93164 4.58984-5.32227 9.47266-1.02539 13.8184Zm32.0801-90.9668c-2.09961 2.05078-2.24609 4.93164-1.07422 6.88477 1.17188 1.80664 3.4668 2.97852 6.68945 2.14844 7.32422-1.70898 14.9414-2.00195 22.0703 2.68555l-2.92969 7.27539c-1.70898 4.15039-0.830078 7.08008 1.85547 9.81445l11.4746 11.5723c2.44141 2.44141 4.49219 2.53906 7.32422 2.05078l5.32227-0.976562 3.32031 3.36914-0.195312 2.7832c-0.195312 2.49023 0.439453 4.39453 2.88086 6.78711l3.80859 3.71094c2.39258 2.39258 5.46875 2.53906 7.8125 0.195312l14.5508-14.5996c2.34375-2.34375 2.24609-5.32227-0.146484-7.71484l-3.85742-3.80859c-2.39258-2.39258-4.24805-3.17383-6.64062-2.97852l-2.88086 0.244141-3.22266-3.17383 1.2207-5.61523c0.634766-2.83203-0.146484-5.0293-3.07617-7.95898l-10.9863-10.9375c-16.6992-16.6016-38.8672-16.2109-53.3203-1.75781Zm7.4707 1.85547c12.1582-8.88672 28.6133-7.37305 39.7461 3.75977l12.1582 12.0605c1.17188 1.17188 1.36719 2.09961 1.02539 3.80859l-1.61133 7.42188 7.51953 7.42188 4.93164-0.292969c1.26953-0.0488281 1.66016 0.0488281 2.63672 1.02539l2.88086 2.88086-12.207 12.207-2.88086-2.88086c-0.976562-0.976562-1.12305-1.36719-1.07422-2.68555l0.341797-4.88281-7.4707-7.42188-7.61719 1.26953c-1.61133 0.341797-2.34375 0.195312-3.56445-0.976562l-10.0098-10.0098c-1.26953-1.17188-1.41602-2.00195-0.634766-3.85742l4.39453-10.4492c-7.8125-7.27539-17.9688-10.4004-28.125-7.42188-0.78125 0.195312-1.07422-0.439453-0.439453-0.976562Z"/>
  </g>
  <text style="stroke:none;fill:black;font-family:sans-serif;font-size:13;font-weight:bold;" transform="matrix(1 0 0 1 1289 1953)">Exporting</text>
  <text style="stroke:none;fill:black;font-family:sans-serif;font-size:13;" transform="matrix(1 0 0 1 1289 1971)">Symbols should be outlined when exporting to ensure the</text>
  <text style="stroke:none;fill:black;font-family:sans-serif;font-size:13;" transform="matrix(1 0 0 1 1289 1989)">design is preserved when submitting to Xcode.</text>
  <text id="template-version" style="stroke:none;fill:black;font-family:sans-serif;font-size:13;text-anchor:end;" transform="matrix(1 0 0 1 3036 1933)">Template v.6.0</text>
  <text style="stroke:none;fill:black;font-family:sans-serif;font-size:13;text-anchor:end;" transform="matrix(1 0 0 1 3036 1951)">Requires Xcode 16 or greater</text>
  <text id="descriptive-name" style="stroke:none;fill:black;font-family:sans-serif;font-size:13;text-anchor:end;" transform="matrix(1 0 0 1 3036 1969)">Generated from car.fill</text>
  <text style="stroke:none;fill:black;font-family:sans-serif;font-size:13;text-anchor:end;" transform="matrix(1 0 0 1 3036 1987)">Typeset at 100.0 points</text>
  <text style="stroke:none;fill:black;font-family:sans-serif;font-size:13;" transform="matrix(1 0 0 1 263 726)">Small</text>
  <text style="stroke:none;fill:black;font-family:sans-serif;font-size:13;" transform="matrix(1 0 0 1 263 1156)">Medium</text>
  <text style="stroke:none;fill:black;font-family:sans-serif;font-size:13;" transform="matrix(1 0 0 1 263 1586)">Large</text>
 </g>
 <g id="Guides">
  <g id="H-reference" style="fill:#27AAE1;stroke:none;" transform="matrix(1 0 0 1 339 696)">
   <path d="M0.993654 0L3.63775 0L29.3281-67.1323L30.0303-67.1323L30.0303-70.459L28.1226-70.459ZM11.6885-24.4799L46.9815-24.4799L46.2315-26.7285L12.4385-26.7285ZM55.1196 0L57.7637 0L30.6382-70.459L29.4326-70.459L29.4326-67.1323Z"/>
  </g>
  <line id="Baseline-S" style="fill:none;stroke:#27AAE1;opacity:1;stroke-width:0.5;" x1="263" x2="3036" y1="696" y2="696"/>
  <line id="Capline-S" style="fill:none;stroke:#27AAE1;opacity:1;stroke-width:0.5;" x1="263" x2="3036" y1="625.541" y2="625.541"/>
  <g id="H-reference" style="fill:#27AAE1;stroke:none;" transform="matrix(1 0 0 1 339 1126)">
   <path d="M0.993654 0L3.63775 0L29.3281-67.1323L30.0303-67.1323L30.0303-70.459L28.1226-70.459ZM11.6885-24.4799L46.9815-24.4799L46.2315-26.7285L12.4385-26.7285ZM55.1196 0L57.7637 0L30.6382-70.459L29.4326-70.459L29.4326-67.1323Z"/>
  </g>
  <line id="Baseline-M" style="fill:none;stroke:#27AAE1;opacity:1;stroke-width:0.5;" x1="263" x2="3036" y1="1126" y2="1126"/>
  <line id="Capline-M" style="fill:none;stroke:#27AAE1;opacity:1;stroke-width:0.5;" x1="263" x2="3036" y1="1055.54" y2="1055.54"/>
  <g id="H-reference" style="fill:#27AAE1;stroke:none;" transform="matrix(1 0 0 1 339 1556)">
   <path d="M0.993654 0L3.63775 0L29.3281-67.1323L30.0303-67.1323L30.0303-70.459L28.1226-70.459ZM11.6885-24.4799L46.9815-24.4799L46.2315-26.7285L12.4385-26.7285ZM55.1196 0L57.7637 0L30.6382-70.459L29.4326-70.459L29.4326-67.1323Z"/>
  </g>
  <line id="Baseline-L" style="fill:none;stroke:#27AAE1;opacity:1;stroke-width:0.5;" x1="263" x2="3036" y1="1556" y2="1556"/>
  <line id="Capline-L" style="fill:none;stroke:#27AAE1;opacity:1;stroke-width:0.5;" x1="263" x2="3036" y1="1485.54" y2="1485.54"/>
  <line id="right-margin-Black-S" style="fill:none;stroke:#00AEEF;stroke-width:0.5;opacity:1.0;" x1="2993.56" x2="2993.56" y1="600.785" y2="720.121"/>
  <line id="left-margin-Black-S" style="fill:none;stroke:#00AEEF;stroke-width:0.5;opacity:1.0;" x1="2873.24" x2="2873.24" y1="600.785" y2="720.121"/>
  <line id="right-margin-Regular-S" style="fill:none;stroke:#00AEEF;stroke-width:0.5;opacity:1.0;" x1="1505.36" x2="1505.36" y1="600.785" y2="720.121"/>
  <line id="left-margin-Regular-S" style="fill:none;stroke:#00AEEF;stroke-width:0.5;opacity:1.0;" x1="1394.33" x2="1394.33" y1="600.785" y2="720.121"/>
  <line id="right-margin-Ultralight-S" style="fill:none;stroke:#00AEEF;stroke-width:0.5;opacity:1.0;" x1="612.572" x2="612.572" y1="600.785" y2="720.121"/>
  <line id="left-margin-Ultralight-S" style="fill:none;stroke:#00AEEF;stroke-width:0.5;opacity:1.0;" x1="506.85" x2="506.85" y1="600.785" y2="720.121"/>
 </g>
 <g id="Symbols">
  <g id="Black-S" transform="matrix(1 0 0 1 2873.24 696)">
   <path class="monochrome-0 multicolor-0:systemBlueColor hierarchical-0:primary SFSymbolsPreviewWireframe" d="M31.1523-55.2246C31.6895-57.3242 32.666-60.4004 33.252-61.6211C34.7168-64.6973 36.7188-65.8203 40.4785-66.3086C42.3828-66.6016 49.1211-66.6992 60.1562-66.6992C71.1914-66.6992 77.9297-66.6016 79.8828-66.3086C83.5938-65.8203 85.5957-64.6973 87.0605-61.6211C87.6465-60.4004 88.6719-57.3242 89.1602-55.2246C89.7949-52.5391 88.623-50.7812 85.6934-50.8301C81.9824-50.8789 75.1465-51.2207 60.1562-51.2207C45.2148-51.2207 38.3789-50.8789 34.6191-50.8301C31.6895-50.7812 30.4688-52.5391 31.1523-55.2246ZM30.127-21.4355C25.8301-21.4355 22.5586-24.707 22.5586-29.0039C22.5586-33.3008 25.8301-36.5723 30.127-36.5723C34.4238-36.5723 37.6953-33.3008 37.6953-29.0039C37.6953-24.707 34.4238-21.4355 30.127-21.4355ZM48.8281-23.4375C45.6055-23.4375 43.2617-25.7812 43.2617-29.0039C43.2617-32.2266 45.6055-34.5703 48.8281-34.5703L71.4844-34.5703C74.707-34.5703 77.0508-32.2266 77.0508-29.0039C77.0508-25.7812 74.707-23.4375 71.4844-23.4375ZM90.1855-21.4355C85.8887-21.4355 82.6172-24.707 82.6172-29.0039C82.6172-33.3008 85.8887-36.5723 90.1855-36.5723C94.4824-36.5723 97.7539-33.3008 97.7539-29.0039C97.7539-24.707 94.4824-21.4355 90.1855-21.4355ZM60.1562-9.17969C74.2676-9.17969 91.6016-9.81445 98.9746-10.6934C106.152-11.5723 110.547-16.0156 110.547-22.9492L110.547-28.2227C110.547-36.2793 109.57-40.625 105.811-45.5078L101.709-50.1953C100.244-57.0801 97.7051-64.2578 96.3379-67.1387C93.8477-72.5586 88.9648-75.8789 82.7148-76.709C79.0527-77.1973 71.6309-77.4902 60.1562-77.4902C48.6816-77.4902 41.2598-77.1973 37.5977-76.709C31.3477-75.8789 26.4648-72.5586 23.9746-67.1387C22.6074-64.2578 20.0684-57.0801 18.6035-50.1953L14.502-45.5078C10.7422-40.625 9.76562-36.2793 9.76562-28.2227L9.76562-22.9492C9.76562-16.0156 14.1602-11.5234 21.3379-10.6934C28.7109-9.86328 46.0449-9.17969 60.1562-9.17969ZM15.4297 3.07617L20.5078 3.07617C23.6816 3.07617 26.1719 0.585938 26.1719-2.58789L26.1719-13.2812L9.76562-22.9492L9.76562-2.58789C9.76562 0.585938 12.2559 3.07617 15.4297 3.07617ZM99.8047 3.07617L104.883 3.07617C108.057 3.07617 110.547 0.585938 110.547-2.58789L110.547-22.9492L94.1406-13.2812L94.1406-2.58789C94.1406 0.585938 96.6309 3.07617 99.8047 3.07617Z"/>
  </g>
  <g id="Regular-S" transform="matrix(1 0 0 1 1394.33 696)">
   <path class="monochrome-0 multicolor-0:systemBlueColor hierarchical-0:primary SFSymbolsPreviewWireframe" d="M26.0254-49.4141C26.8555-53.3203 28.7598-58.9844 30.0293-61.1816C31.0059-62.9395 31.9824-63.5742 33.8379-63.8184C36.6699-64.209 43.1152-64.502 55.5176-64.502C67.9199-64.502 74.3652-64.3066 77.1973-63.8184C79.0039-63.5254 79.9316-62.9395 81.0059-61.1816C82.3242-59.0332 84.0332-53.3203 85.0098-49.4141C85.4004-47.9004 84.7168-47.4121 83.2031-47.5098C76.9531-47.9004 69.2871-48.3398 55.5176-48.3398C41.748-48.3398 34.0332-47.9004 27.832-47.5098C26.3184-47.4121 25.6836-47.9004 26.0254-49.4141ZM27.9297-20.5566C24.2676-20.5566 21.4844-23.3398 21.4844-27.002C21.4844-30.6641 24.2676-33.4473 27.9297-33.4473C31.5918-33.4473 34.375-30.6641 34.375-27.002C34.375-23.3398 31.5918-20.5566 27.9297-20.5566ZM45.2148-22.2656C42.4805-22.2656 40.5762-24.2188 40.5762-26.9531C40.5762-29.6875 42.4805-31.5918 45.2148-31.5918L65.8203-31.5918C68.5547-31.5918 70.459-29.6875 70.459-26.9531C70.459-24.2188 68.5547-22.2656 65.8203-22.2656ZM83.1055-20.5566C79.4434-20.5566 76.6602-23.3398 76.6602-27.002C76.6602-30.6641 79.4434-33.4473 83.1055-33.4473C86.7676-33.4473 89.5508-30.6641 89.5508-27.002C89.5508-23.3398 86.7676-20.5566 83.1055-20.5566ZM55.5176-10.3027C68.5547-10.3027 85.6445-10.9375 92.9199-11.7676C98.291-12.3535 101.27-15.3809 101.27-20.4102L101.27-27.1484C101.27-33.4961 100.049-37.207 96.3379-41.9922L93.1641-46.1426C91.748-53.0273 89.209-60.2539 87.8906-63.0859C85.8398-67.3828 81.8359-70.1172 76.5625-70.8008C73.9746-71.1426 65.7227-71.3379 55.5176-71.3379C45.3125-71.3379 37.0117-71.0938 34.4727-70.8008C29.1992-70.166 25.1953-67.3828 23.1445-63.0859C21.8262-60.2539 19.2871-53.0273 17.8711-46.1426L14.6973-41.9922C10.9863-37.207 9.76562-33.4961 9.76562-27.1484L9.76562-20.4102C9.76562-15.3809 12.7441-12.3535 18.1152-11.7676C25.3906-10.9375 42.4805-10.3027 55.5176-10.3027ZM14.8926 0.390625L19.4824 0.390625C22.4121 0.390625 24.6582-1.80664 24.6582-4.6875L24.6582-14.3555L9.76562-21.4355L9.76562-4.6875C9.76562-1.80664 12.0117 0.390625 14.8926 0.390625ZM91.5527 0.390625L96.0938 0.390625C99.0234 0.390625 101.27-1.80664 101.27-4.6875L101.27-21.4355L86.377-14.3555L86.377-4.6875C86.377-1.80664 88.623 0.390625 91.5527 0.390625Z"/>
  </g>
  <g id="Ultralight-S" transform="matrix(1 0 0 1 506.85 696)">
   <path class="monochrome-0 multicolor-0:systemBlueColor hierarchical-0:primary SFSymbolsPreviewWireframe" d="M23.437-46.7803C24.6304-52.3213 26.353-56.9409 27.5772-59.0474C28.7808-61.1231 30.5293-62.6206 33.6563-63.001C36.7153-63.3916 43.6147-63.5483 52.8838-63.5483C62.1075-63.5483 69.0069-63.3984 72.1114-63.001C75.1895-62.6172 76.98-61.1231 78.1905-59.0474C79.418-56.9444 81.0816-52.3213 82.3306-46.7803C82.5396-45.8569 82.2193-45.0054 80.8418-45.103C74.0015-45.5845 66.9258-45.8423 52.8838-45.8423C38.8418-45.8423 31.7627-45.5845 24.9258-45.103C23.5484-45.0054 23.2315-45.8569 23.437-46.7803ZM25.2959-21.2832C22.4966-21.2832 20.4854-23.3398 20.4854-26.1392C20.4854-28.8931 22.4966-30.9497 25.2959-30.9497C28.0498-30.9497 30.1065-28.8931 30.1065-26.1392C30.1065-23.3398 28.0498-21.2832 25.2959-21.2832ZM43.5347-21.8115C41.5269-21.8115 40.1675-23.1289 40.1675-25.1821C40.1675-27.2354 41.5269-28.5948 43.5347-28.5948L62.1875-28.5948C64.2408-28.5948 65.6001-27.2354 65.6001-25.1821C65.6001-23.1289 64.2408-21.8115 62.1875-21.8115ZM80.4717-21.2832C77.6724-21.2832 75.6611-23.3398 75.6611-26.1392C75.6611-28.8931 77.6724-30.9497 80.4717-30.9497C83.2256-30.9497 85.2823-28.8931 85.2823-26.1392C85.2823-23.3398 83.2256-21.2832 80.4717-21.2832ZM52.8838-10.7114C64.9673-10.7114 81.9663-11.3462 89.1509-12.1763C93.3868-12.6714 95.9566-14.7451 95.9566-19.0933L95.9566-25.8316C95.9566-32.7695 94.2364-35.8901 91.4336-39.6309L88.0328-44.0537C86.6621-50.9385 84.1231-58.2105 82.8047-60.9971C80.7994-65.2486 76.9317-67.211 72.7935-67.7583C70.1602-68.1001 61.3633-68.2954 52.8838-68.2954C44.4043-68.2954 35.5586-68.0967 32.9287-67.7583C28.8359-67.2144 24.9683-65.2486 22.9629-60.9971C21.6445-58.2105 19.1055-50.9385 17.7349-44.0537L14.334-39.6309C11.4858-35.8901 9.76562-32.7695 9.76562-25.8316L9.76562-19.0933C9.76562-14.7451 12.3809-12.6714 16.5713-12.1763C23.7559-11.3462 40.7549-10.7114 52.8838-10.7114ZM14.4839-0.926259L18.7105-0.926259C21.3223-0.926259 23.3867-2.9873 23.3867-5.5957L23.3867-14.4917L9.76562-21.0269L9.76562-5.5957C9.76562-2.9873 11.8301-0.926259 14.4839-0.926259ZM87.0572-0.926259L91.2803-0.926259C93.9375-0.926259 95.9566-2.9873 95.9566-5.5957L95.9566-21.0269L82.3355-14.4917L82.3355-5.5957C82.3355-2.9873 84.3999-0.926259 87.0572-0.926259Z"/>
  </g>
 </g>
</svg>
