<?xml version="1.0" encoding="UTF-8"?>
<!--Generator: Apple Native CoreSVG 341-->
<!DOCTYPE svg
PUBLIC "-//W3C//DTD SVG 1.1//EN"
       "http://www.w3.org/Graphics/SVG/1.1/DTD/svg11.dtd">
<svg version="1.1" xmlns="http://www.w3.org/2000/svg" xmlns:xlink="http://www.w3.org/1999/xlink" viewBox="0 0 3300 2200">
 <!--glyph: "101770", point size: 100.0, font version: "20.0d10e1", template writer version: "138.0.0"-->
 <style>.monochrome-0 {-sfsymbols-motion-group:1;-sfsymbols-layer-tags:tree.fill}
.monochrome-1 {-sfsymbols-motion-group:0;-sfsymbols-layer-tags:tree.fill}

.multicolor-0:systemBrownColor {-sfsymbols-motion-group:1;-sfsymbols-layer-tags:tree.fill}
.multicolor-1:systemGreenColor {-sfsymbols-motion-group:0;-sfsymbols-layer-tags:tree.fill}

.hierarchical-0:primary {-sfsymbols-motion-group:1;-sfsymbols-layer-tags:tree.fill}
.hierarchical-1:primary {-sfsymbols-motion-group:0;-sfsymbols-layer-tags:tree.fill}

.SFSymbolsPreviewWireframe {fill:none;opacity:1.0;stroke:black;stroke-width:0.5}
</style>
 <g id="Notes">
  <rect height="2200" id="artboard" style="fill:white;opacity:1" width="3300" x="0" y="0"/>
  <line style="fill:none;stroke:black;opacity:1;stroke-width:0.5;" x1="263" x2="3036" y1="292" y2="292"/>
  <text style="stroke:none;fill:black;font-family:sans-serif;font-size:13;font-weight:bold;" transform="matrix(1 0 0 1 263 322)">Weight/Scale Variations</text>
  <text style="stroke:none;fill:black;font-family:sans-serif;font-size:13;text-anchor:middle;" transform="matrix(1 0 0 1 559.711 322)">Ultralight</text>
  <text style="stroke:none;fill:black;font-family:sans-serif;font-size:13;text-anchor:middle;" transform="matrix(1 0 0 1 856.422 322)">Thin</text>
  <text style="stroke:none;fill:black;font-family:sans-serif;font-size:13;text-anchor:middle;" transform="matrix(1 0 0 1 1153.13 322)">Light</text>
  <text style="stroke:none;fill:black;font-family:sans-serif;font-size:13;text-anchor:middle;" transform="matrix(1 0 0 1 1449.84 322)">Regular</text>
  <text style="stroke:none;fill:black;font-family:sans-serif;font-size:13;text-anchor:middle;" transform="matrix(1 0 0 1 1746.56 322)">Medium</text>
  <text style="stroke:none;fill:black;font-family:sans-serif;font-size:13;text-anchor:middle;" transform="matrix(1 0 0 1 2043.27 322)">Semibold</text>
  <text style="stroke:none;fill:black;font-family:sans-serif;font-size:13;text-anchor:middle;" transform="matrix(1 0 0 1 2339.98 322)">Bold</text>
  <text style="stroke:none;fill:black;font-family:sans-serif;font-size:13;text-anchor:middle;" transform="matrix(1 0 0 1 2636.69 322)">Heavy</text>
  <text style="stroke:none;fill:black;font-family:sans-serif;font-size:13;text-anchor:middle;" transform="matrix(1 0 0 1 2933.4 322)">Black</text>
  <line style="fill:none;stroke:black;opacity:1;stroke-width:0.5;" x1="263" x2="3036" y1="1903" y2="1903"/>
  <g transform="matrix(0.2 0 0 0.2 263 1933)">
   <path d="m46.2402 4.15039c21.7773 0 39.4531-17.627 39.4531-39.4043s-17.6758-39.4043-39.4531-39.4043c-21.7285 0-39.4043 17.627-39.4043 39.4043s17.6758 39.4043 39.4043 39.4043Zm0-7.42188c-17.6758 0-31.9336-14.3066-31.9336-31.9824s14.2578-31.9824 31.9336-31.9824 31.9824 14.3066 31.9824 31.9824-14.3066 31.9824-31.9824 31.9824Zm-17.9688-31.9824c0 2.14844 1.51367 3.61328 3.75977 3.61328h10.498v10.5957c0 2.19727 1.46484 3.71094 3.61328 3.71094 2.24609 0 3.71094-1.51367 3.71094-3.71094v-10.5957h10.5957c2.19727 0 3.71094-1.46484 3.71094-3.61328 0-2.19727-1.51367-3.71094-3.71094-3.71094h-10.5957v-10.5469c0-2.24609-1.46484-3.75977-3.71094-3.75977-2.14844 0-3.61328 1.51367-3.61328 3.75977v10.5469h-10.498c-2.24609 0-3.75977 1.51367-3.75977 3.71094Z"/>
  </g>
  <g transform="matrix(0.2 0 0 0.2 281.506 1933)">
   <path d="m58.5449 14.5508c27.4902 0 49.8047-22.3145 49.8047-49.8047s-22.3145-49.8047-49.8047-49.8047-49.8047 22.3145-49.8047 49.8047 22.3145 49.8047 49.8047 49.8047Zm0-8.30078c-22.9492 0-41.5039-18.5547-41.5039-41.5039s18.5547-41.5039 41.5039-41.5039 41.5039 18.5547 41.5039 41.5039-18.5547 41.5039-41.5039 41.5039Zm-22.6562-41.5039c0 2.39258 1.66016 4.00391 4.15039 4.00391h14.3555v14.4043c0 2.44141 1.66016 4.15039 4.05273 4.15039 2.44141 0 4.15039-1.66016 4.15039-4.15039v-14.4043h14.4043c2.44141 0 4.15039-1.61133 4.15039-4.00391 0-2.44141-1.70898-4.15039-4.15039-4.15039h-14.4043v-14.3555c0-2.49023-1.70898-4.19922-4.15039-4.19922-2.39258 0-4.05273 1.70898-4.05273 4.19922v14.3555h-14.3555c-2.49023 0-4.15039 1.70898-4.15039 4.15039Z"/>
  </g>
  <g transform="matrix(0.2 0 0 0.2 304.924 1933)">
   <path d="m74.8535 28.3203c35.1074 0 63.623-28.4668 63.623-63.5742s-28.5156-63.623-63.623-63.623-63.5742 28.5156-63.5742 63.623 28.4668 63.5742 63.5742 63.5742Zm0-9.08203c-30.127 0-54.4922-24.3652-54.4922-54.4922s24.3652-54.4922 54.4922-54.4922 54.4922 24.3652 54.4922 54.4922-24.3652 54.4922-54.4922 54.4922Zm-28.8574-54.4922c0 2.58789 1.85547 4.39453 4.58984 4.39453h19.7266v19.7754c0 2.68555 1.85547 4.58984 4.44336 4.58984 2.68555 0 4.54102-1.85547 4.54102-4.58984v-19.7754h19.7754c2.68555 0 4.58984-1.80664 4.58984-4.39453 0-2.73438-1.85547-4.58984-4.58984-4.58984h-19.7754v-19.7266c0-2.73438-1.85547-4.63867-4.54102-4.63867-2.58789 0-4.44336 1.9043-4.44336 4.63867v19.7266h-19.7266c-2.73438 0-4.58984 1.85547-4.58984 4.58984Z"/>
  </g>
  <text style="stroke:none;fill:black;font-family:sans-serif;font-size:13;font-weight:bold;" transform="matrix(1 0 0 1 263 1953)">Design Variations</text>
  <text style="stroke:none;fill:black;font-family:sans-serif;font-size:13;" transform="matrix(1 0 0 1 263 1971)">Symbols are supported in up to nine weights and three scales.</text>
  <text style="stroke:none;fill:black;font-family:sans-serif;font-size:13;" transform="matrix(1 0 0 1 263 1989)">For optimal layout with text and other symbols, vertically align</text>
  <text style="stroke:none;fill:black;font-family:sans-serif;font-size:13;" transform="matrix(1 0 0 1 263 2007)">symbols with the adjacent text.</text>
  <line style="fill:none;stroke:#00AEEF;stroke-width:0.5;opacity:1.0;" x1="776" x2="776" y1="1919" y2="1933"/>
  <g transform="matrix(0.2 0 0 0.2 776 1933)">
   <path d="m16.5527 0.78125c2.58789 0 3.85742-0.976562 4.78516-3.71094l6.29883-17.2363h28.8086l6.29883 17.2363c0.927734 2.73438 2.19727 3.71094 4.73633 3.71094 2.58789 0 4.24805-1.5625 4.24805-4.00391 0-0.830078-0.146484-1.61133-0.537109-2.63672l-22.9004-60.9863c-1.12305-2.97852-3.125-4.49219-6.25-4.49219-3.02734 0-5.07812 1.46484-6.15234 4.44336l-22.9004 61.084c-0.390625 1.02539-0.537109 1.80664-0.537109 2.63672 0 2.44141 1.5625 3.95508 4.10156 3.95508Zm13.4766-28.3691 11.8652-32.8613h0.244141l11.8652 32.8613Z"/>
  </g>
  <line style="fill:none;stroke:#00AEEF;stroke-width:0.5;opacity:1.0;" x1="792.836" x2="792.836" y1="1919" y2="1933"/>
  <text style="stroke:none;fill:black;font-family:sans-serif;font-size:13;font-weight:bold;" transform="matrix(1 0 0 1 776 1953)">Margins</text>
  <text style="stroke:none;fill:black;font-family:sans-serif;font-size:13;" transform="matrix(1 0 0 1 776 1971)">Leading and trailing margins on the left and right side of each symbol</text>
  <text style="stroke:none;fill:black;font-family:sans-serif;font-size:13;" transform="matrix(1 0 0 1 776 1989)">can be adjusted by modifying the x-location of the margin guidelines.</text>
  <text style="stroke:none;fill:black;font-family:sans-serif;font-size:13;" transform="matrix(1 0 0 1 776 2007)">Modifications are automatically applied proportionally to all</text>
  <text style="stroke:none;fill:black;font-family:sans-serif;font-size:13;" transform="matrix(1 0 0 1 776 2025)">scales and weights.</text>
  <g transform="matrix(0.2 0 0 0.2 1289 1933)">
   <path d="m14.209 9.32617 8.49609 8.54492c4.29688 4.3457 9.22852 4.05273 13.8672-1.07422l53.4668-58.9355-4.83398-4.88281-53.0762 58.3984c-1.75781 2.00195-3.41797 2.49023-5.76172 0.146484l-5.85938-5.81055c-2.34375-2.29492-1.80664-4.00391 0.195312-5.81055l57.373-54.0039-4.88281-4.83398-57.959 54.4434c-4.93164 4.58984-5.32227 9.47266-1.02539 13.8184Zm32.0801-90.9668c-2.09961 2.05078-2.24609 4.93164-1.07422 6.88477 1.17188 1.80664 3.4668 2.97852 6.68945 2.14844 7.32422-1.70898 14.9414-2.00195 22.0703 2.68555l-2.92969 7.27539c-1.70898 4.15039-0.830078 7.08008 1.85547 9.81445l11.4746 11.5723c2.44141 2.44141 4.49219 2.53906 7.32422 2.05078l5.32227-0.976562 3.32031 3.36914-0.195312 2.7832c-0.195312 2.49023 0.439453 4.39453 2.88086 6.78711l3.80859 3.71094c2.39258 2.39258 5.46875 2.53906 7.8125 0.195312l14.5508-14.5996c2.34375-2.34375 2.24609-5.32227-0.146484-7.71484l-3.85742-3.80859c-2.39258-2.39258-4.24805-3.17383-6.64062-2.97852l-2.88086 0.244141-3.22266-3.17383 1.2207-5.61523c0.634766-2.83203-0.146484-5.0293-3.07617-7.95898l-10.9863-10.9375c-16.6992-16.6016-38.8672-16.2109-53.3203-1.75781Zm7.4707 1.85547c12.1582-8.88672 28.6133-7.37305 39.7461 3.75977l12.1582 12.0605c1.17188 1.17188 1.36719 2.09961 1.02539 3.80859l-1.61133 7.42188 7.51953 7.42188 4.93164-0.292969c1.26953-0.0488281 1.66016 0.0488281 2.63672 1.02539l2.88086 2.88086-12.207 12.207-2.88086-2.88086c-0.976562-0.976562-1.12305-1.36719-1.07422-2.68555l0.341797-4.88281-7.4707-7.42188-7.61719 1.26953c-1.61133 0.341797-2.34375 0.195312-3.56445-0.976562l-10.0098-10.0098c-1.26953-1.17188-1.41602-2.00195-0.634766-3.85742l4.39453-10.4492c-7.8125-7.27539-17.9688-10.4004-28.125-7.42188-0.78125 0.195312-1.07422-0.439453-0.439453-0.976562Z"/>
  </g>
  <text style="stroke:none;fill:black;font-family:sans-serif;font-size:13;font-weight:bold;" transform="matrix(1 0 0 1 1289 1953)">Exporting</text>
  <text style="stroke:none;fill:black;font-family:sans-serif;font-size:13;" transform="matrix(1 0 0 1 1289 1971)">Symbols should be outlined when exporting to ensure the</text>
  <text style="stroke:none;fill:black;font-family:sans-serif;font-size:13;" transform="matrix(1 0 0 1 1289 1989)">design is preserved when submitting to Xcode.</text>
  <text id="template-version" style="stroke:none;fill:black;font-family:sans-serif;font-size:13;text-anchor:end;" transform="matrix(1 0 0 1 3036 1933)">Template v.6.0</text>
  <text style="stroke:none;fill:black;font-family:sans-serif;font-size:13;text-anchor:end;" transform="matrix(1 0 0 1 3036 1951)">Requires Xcode 16 or greater</text>
  <text id="descriptive-name" style="stroke:none;fill:black;font-family:sans-serif;font-size:13;text-anchor:end;" transform="matrix(1 0 0 1 3036 1969)">Generated from tree.fill</text>
  <text style="stroke:none;fill:black;font-family:sans-serif;font-size:13;text-anchor:end;" transform="matrix(1 0 0 1 3036 1987)">Typeset at 100.0 points</text>
  <text style="stroke:none;fill:black;font-family:sans-serif;font-size:13;" transform="matrix(1 0 0 1 263 726)">Small</text>
  <text style="stroke:none;fill:black;font-family:sans-serif;font-size:13;" transform="matrix(1 0 0 1 263 1156)">Medium</text>
  <text style="stroke:none;fill:black;font-family:sans-serif;font-size:13;" transform="matrix(1 0 0 1 263 1586)">Large</text>
 </g>
 <g id="Guides">
  <g id="H-reference" style="fill:#27AAE1;stroke:none;" transform="matrix(1 0 0 1 339 696)">
   <path d="M0.993654 0L3.63775 0L29.3281-67.1323L30.0303-67.1323L30.0303-70.459L28.1226-70.459ZM11.6885-24.4799L46.9815-24.4799L46.2315-26.7285L12.4385-26.7285ZM55.1196 0L57.7637 0L30.6382-70.459L29.4326-70.459L29.4326-67.1323Z"/>
  </g>
  <line id="Baseline-S" style="fill:none;stroke:#27AAE1;opacity:1;stroke-width:0.5;" x1="263" x2="3036" y1="696" y2="696"/>
  <line id="Capline-S" style="fill:none;stroke:#27AAE1;opacity:1;stroke-width:0.5;" x1="263" x2="3036" y1="625.541" y2="625.541"/>
  <g id="H-reference" style="fill:#27AAE1;stroke:none;" transform="matrix(1 0 0 1 339 1126)">
   <path d="M0.993654 0L3.63775 0L29.3281-67.1323L30.0303-67.1323L30.0303-70.459L28.1226-70.459ZM11.6885-24.4799L46.9815-24.4799L46.2315-26.7285L12.4385-26.7285ZM55.1196 0L57.7637 0L30.6382-70.459L29.4326-70.459L29.4326-67.1323Z"/>
  </g>
  <line id="Baseline-M" style="fill:none;stroke:#27AAE1;opacity:1;stroke-width:0.5;" x1="263" x2="3036" y1="1126" y2="1126"/>
  <line id="Capline-M" style="fill:none;stroke:#27AAE1;opacity:1;stroke-width:0.5;" x1="263" x2="3036" y1="1055.54" y2="1055.54"/>
  <g id="H-reference" style="fill:#27AAE1;stroke:none;" transform="matrix(1 0 0 1 339 1556)">
   <path d="M0.993654 0L3.63775 0L29.3281-67.1323L30.0303-67.1323L30.0303-70.459L28.1226-70.459ZM11.6885-24.4799L46.9815-24.4799L46.2315-26.7285L12.4385-26.7285ZM55.1196 0L57.7637 0L30.6382-70.459L29.4326-70.459L29.4326-67.1323Z"/>
  </g>
  <line id="Baseline-L" style="fill:none;stroke:#27AAE1;opacity:1;stroke-width:0.5;" x1="263" x2="3036" y1="1556" y2="1556"/>
  <line id="Capline-L" style="fill:none;stroke:#27AAE1;opacity:1;stroke-width:0.5;" x1="263" x2="3036" y1="1485.54" y2="1485.54"/>
  <line id="right-margin-Black-S" style="fill:none;stroke:#00AEEF;stroke-width:0.5;opacity:1.0;" x1="2994.73" x2="2994.73" y1="600.785" y2="720.121"/>
  <line id="left-margin-Black-S" style="fill:none;stroke:#00AEEF;stroke-width:0.5;opacity:1.0;" x1="2872.07" x2="2872.07" y1="600.785" y2="720.121"/>
  <line id="right-margin-Regular-S" style="fill:none;stroke:#00AEEF;stroke-width:0.5;opacity:1.0;" x1="1510.07" x2="1510.07" y1="600.785" y2="720.121"/>
  <line id="left-margin-Regular-S" style="fill:none;stroke:#00AEEF;stroke-width:0.5;opacity:1.0;" x1="1389.61" x2="1389.61" y1="600.785" y2="720.121"/>
  <line id="right-margin-Ultralight-S" style="fill:none;stroke:#00AEEF;stroke-width:0.5;opacity:1.0;" x1="614.628" x2="614.628" y1="600.785" y2="720.121"/>
  <line id="left-margin-Ultralight-S" style="fill:none;stroke:#00AEEF;stroke-width:0.5;opacity:1.0;" x1="504.795" x2="504.795" y1="600.785" y2="720.121"/>
 </g>
 <g id="Symbols">
  <g id="Black-S" transform="matrix(1 0 0 1 2872.07 696)">
   <path class="monochrome-0 multicolor-0:systemBrownColor hierarchical-0:primary SFSymbolsPreviewWireframe" d="M61.3281 16.6992C65.4785 16.6992 68.2129 14.8926 68.2129 12.5977C68.2129 10.0098 67.5293 2.39258 67.5293-2.24609C67.5293-10.791 77.1973-28.1738 78.2715-29.9316L72.168-33.7402C70.459-30.5664 68.4082-27.1973 65.0391-19.9707L65.0391-32.0801L57.6172-32.0801L57.6172-19.9219C54.248-27.1484 52.1973-30.6152 50.4883-33.7402L44.4336-29.9316C45.459-28.1738 55.127-10.791 55.127-2.24609C55.127 2.39258 54.4434 10.0098 54.4434 12.5977C54.4434 14.8926 57.1777 16.6992 61.3281 16.6992Z"/>
   <path class="monochrome-1 multicolor-1:systemGreenColor hierarchical-1:primary SFSymbolsPreviewWireframe" d="M9.76562-25.7812C9.76562-15.4785 16.9922-8.00781 27.0508-8.00781C29.6875-8.00781 32.6172-8.59375 35.5957-9.86328C38.3301-7.95898 43.4082-5.32227 49.9512-4.98047C48.8281-10.4492 44.9707-18.4082 41.748-24.5605C48.1934-24.9023 52.1973-28.0762 54.0527-32.4219C56.1035-31.2012 58.5938-30.5664 61.3281-30.5664C64.0625-30.5664 66.5527-31.2012 68.6035-32.4219C70.459-28.0762 74.4629-24.9023 80.9082-24.5605C77.6855-18.4082 73.8281-10.4492 72.7051-4.98047C79.248-5.32227 84.3262-7.95898 87.0605-9.86328C90.0391-8.59375 92.9688-8.00781 95.6055-8.00781C105.664-8.00781 112.891-15.4785 112.891-25.7812C112.891-30.2734 111.23-35.0586 107.617-39.4043C110.352-43.0176 111.523-47.2168 111.523-51.0742C111.523-60.4492 104.883-69.3359 95.8984-71.4844C94.0918-80.5176 83.8379-86.4746 74.4141-86.4746C69.6289-86.4746 64.9902-85.1074 61.3281-81.8848C57.666-85.1074 53.0273-86.4746 48.2422-86.4746C38.8184-86.4746 28.5645-80.5176 26.7578-71.4844C17.7734-69.3359 11.1328-60.4492 11.1328-51.0742C11.1328-47.2168 12.3047-43.0176 15.0391-39.4043C11.4258-35.0586 9.76562-30.2734 9.76562-25.7812Z"/>
  </g>
  <g id="Regular-S" transform="matrix(1 0 0 1 1389.61 696)">
   <path class="monochrome-0 multicolor-0:systemBrownColor hierarchical-0:primary SFSymbolsPreviewWireframe" d="M60.2539 16.1133C64.209 16.1133 66.748 14.8438 66.748 12.793C66.748 10.2539 66.0645 2.44141 66.0645-2.34375C66.0645-8.78906 71.3867-20.0195 79.1992-35.3027L73.6328-37.9395C67.7246-27.2461 65.9668-23.8281 63.623-18.75L63.3789-37.9395L56.7383-38.3301L56.8359-18.7012C54.541-23.7793 52.4414-27.7344 47.2656-36.5723L43.1641-30.957C49.0723-20.0195 54.3945-8.78906 54.3945-2.34375C54.3945 2.44141 53.7109 10.2539 53.7109 12.793C53.7109 14.8438 56.2988 16.1133 60.2539 16.1133Z"/>
   <path class="monochrome-1 multicolor-1:systemGreenColor hierarchical-1:primary SFSymbolsPreviewWireframe" d="M9.76562-24.7559C9.76562-15.332 16.2109-8.74023 25.293-8.74023C28.1738-8.74023 31.2988-9.47266 34.5703-11.084C36.6699-9.22852 42.1387-6.00586 49.2188-5.56641C47.8516-11.7676 43.4082-20.6543 40.9668-25.293C47.3633-25.6836 50.9766-29.0039 52.6855-33.4961C54.7363-32.0312 57.1777-31.25 60.2539-31.25C63.2812-31.25 65.7227-32.0312 67.8223-33.4961C69.4824-29.0039 73.1445-25.6836 79.4922-25.293C77.0508-20.6543 72.6074-11.7676 71.2402-5.56641C78.3203-6.00586 83.7891-9.22852 85.9375-11.084C89.209-9.47266 92.2852-8.74023 95.166-8.74023C104.297-8.74023 110.693-15.332 110.693-24.7559C110.693-29.4922 108.74-34.5215 104.346-39.0137C107.861-42.6758 109.277-47.1191 109.277-51.3184C109.277-60.5957 102.197-69.3359 93.1641-70.459C92.6758-79.4434 82.5195-85.791 72.998-85.791C68.1152-85.791 63.623-84.375 60.2539-80.957C56.8359-84.375 52.3438-85.791 47.4609-85.791C37.9395-85.791 27.7832-79.4434 27.2949-70.459C18.2617-69.3359 11.1816-60.5957 11.1816-51.3184C11.1816-47.1191 12.6465-42.6758 16.1133-39.0137C11.7188-34.5215 9.76562-29.4922 9.76562-24.7559Z"/>
  </g>
  <g id="Ultralight-S" transform="matrix(1 0 0 1 504.795 696)">
   <path class="monochrome-0 multicolor-0:systemBrownColor hierarchical-0:primary SFSymbolsPreviewWireframe" d="M54.8956 9.84673C57.2613 9.84673 59.0738 9.07671 59.0738 8.16117C59.0738 6.34866 58.4356 3.71288 58.4356-4.34178C58.4356-12.331 63.9395-23.7431 67.1656-28.355L64.0968-31.5367C61.4126-26.6558 58.3834-20.7857 56.9478-16.9336L56.9307-31.2188L52.8784-31.2461L52.8853-16.9302C51.4531-20.7823 48.3999-26.6445 45.7217-31.4864L42.7554-28.1416C45.8482-23.7431 51.3975-12.331 51.3975-4.34178C51.3975 3.71288 50.7593 6.34866 50.7593 8.16117C50.7593 9.07671 52.5752 9.84673 54.8956 9.84673Z"/>
   <path class="monochrome-1 multicolor-1:systemGreenColor hierarchical-1:primary SFSymbolsPreviewWireframe" d="M9.76562-25.6186C9.76562-17.2847 14.9849-11.9189 23.0679-11.9189C25.7217-11.9189 28.5288-12.6513 31.6641-14.3081C35.0352-10.8179 42.4565-8.59422 47.7656-9.06296C46.5801-14.5376 43.6353-20.8813 40.8306-25.4746C44.5479-26.6372 46.3902-29.4126 47.3272-33.1328C49.5596-31.2593 51.6831-30.2964 54.8956-30.2964C58.1499-30.2964 60.2735-31.2593 62.4639-33.1328C63.4429-29.4126 65.2886-26.6372 69.0025-25.4746C66.1978-20.8813 63.253-14.5376 62.0675-9.06296C67.3766-8.59422 74.7979-10.8179 78.1724-14.3081C81.3077-12.6513 84.1114-11.9189 86.7652-11.9189C94.8062-11.9189 100.067-17.2847 100.067-25.6186C100.067-30.0371 98.2506-34.4761 93.9014-38.6504C97.4171-42.04 98.7423-45.8477 98.7423-50.3193C98.7423-58.7793 91.9801-65.8848 84.0821-66.4629C84.1841-74.7662 75.8443-80.8868 66.9585-80.8868C62.3482-80.8868 57.9922-79.0621 54.8956-75.5533C51.8409-79.0621 47.4849-80.8868 42.8745-80.8868C33.9888-80.8868 25.6489-74.7662 25.751-66.4629C17.853-65.8848 11.0908-58.7793 11.0908-50.3193C11.0908-45.8477 12.4194-42.04 15.9316-38.6504C11.5825-34.4761 9.76562-30.0371 9.76562-25.6186Z"/>
  </g>
 </g>
</svg>
