<?xml version="1.0" encoding="UTF-8"?>
<!--Generator: Apple Native CoreSVG 341-->
<!DOCTYPE svg
PUBLIC "-//W3C//DTD SVG 1.1//EN"
       "http://www.w3.org/Graphics/SVG/1.1/DTD/svg11.dtd">
<svg version="1.1" xmlns="http://www.w3.org/2000/svg" xmlns:xlink="http://www.w3.org/1999/xlink" viewBox="0 0 3300 2200">
 <!--glyph: "", point size: 100.0, font version: "20.0d10e1", template writer version: "138.0.0"-->
 <style>.monochrome-0 {-sfsymbols-motion-group:1;-sfsymbols-layer-tags:-487c0fbb1c5973d square}
.monochrome-1 {-sfsymbols-motion-group:0;-sfsymbols-always-pulses:true;-sfsymbols-layer-tags:-487c0fbb1c5973d -6e92a5b02c9cfc56 arrow.3.trianglepath}

.multicolor-0:tintColor {-sfsymbols-motion-group:1;-sfsymbols-layer-tags:-487c0fbb1c5973d square}
.multicolor-1:tintColor {-sfsymbols-motion-group:0;-sfsymbols-always-pulses:true;-sfsymbols-layer-tags:-487c0fbb1c5973d -6e92a5b02c9cfc56 arrow.3.trianglepath}

.hierarchical-0:secondary {-sfsymbols-motion-group:1;-sfsymbols-layer-tags:-487c0fbb1c5973d square}
.hierarchical-1:primary {-sfsymbols-motion-group:0;-sfsymbols-layer-tags:-487c0fbb1c5973d -6e92a5b02c9cfc56 arrow.3.trianglepath}

.SFSymbolsPreviewWireframe {fill:none;opacity:1.0;stroke:black;stroke-width:0.5}
</style>
 <g id="Notes">
  <rect height="2200" id="artboard" style="fill:white;opacity:1" width="3300" x="0" y="0"/>
  <line style="fill:none;stroke:black;opacity:1;stroke-width:0.5;" x1="263" x2="3036" y1="292" y2="292"/>
  <text style="stroke:none;fill:black;font-family:sans-serif;font-size:13;font-weight:bold;" transform="matrix(1 0 0 1 263 322)">Weight/Scale Variations</text>
  <text style="stroke:none;fill:black;font-family:sans-serif;font-size:13;text-anchor:middle;" transform="matrix(1 0 0 1 559.711 322)">Ultralight</text>
  <text style="stroke:none;fill:black;font-family:sans-serif;font-size:13;text-anchor:middle;" transform="matrix(1 0 0 1 856.422 322)">Thin</text>
  <text style="stroke:none;fill:black;font-family:sans-serif;font-size:13;text-anchor:middle;" transform="matrix(1 0 0 1 1153.13 322)">Light</text>
  <text style="stroke:none;fill:black;font-family:sans-serif;font-size:13;text-anchor:middle;" transform="matrix(1 0 0 1 1449.84 322)">Regular</text>
  <text style="stroke:none;fill:black;font-family:sans-serif;font-size:13;text-anchor:middle;" transform="matrix(1 0 0 1 1746.56 322)">Medium</text>
  <text style="stroke:none;fill:black;font-family:sans-serif;font-size:13;text-anchor:middle;" transform="matrix(1 0 0 1 2043.27 322)">Semibold</text>
  <text style="stroke:none;fill:black;font-family:sans-serif;font-size:13;text-anchor:middle;" transform="matrix(1 0 0 1 2339.98 322)">Bold</text>
  <text style="stroke:none;fill:black;font-family:sans-serif;font-size:13;text-anchor:middle;" transform="matrix(1 0 0 1 2636.69 322)">Heavy</text>
  <text style="stroke:none;fill:black;font-family:sans-serif;font-size:13;text-anchor:middle;" transform="matrix(1 0 0 1 2933.4 322)">Black</text>
  <line style="fill:none;stroke:black;opacity:1;stroke-width:0.5;" x1="263" x2="3036" y1="1903" y2="1903"/>
  <g transform="matrix(0.2 0 0 0.2 263 1933)">
   <path d="m46.2402 4.15039c21.7773 0 39.4531-17.627 39.4531-39.4043s-17.6758-39.4043-39.4531-39.4043c-21.7285 0-39.4043 17.627-39.4043 39.4043s17.6758 39.4043 39.4043 39.4043Zm0-7.42188c-17.6758 0-31.9336-14.3066-31.9336-31.9824s14.2578-31.9824 31.9336-31.9824 31.9824 14.3066 31.9824 31.9824-14.3066 31.9824-31.9824 31.9824Zm-17.9688-31.9824c0 2.14844 1.51367 3.61328 3.75977 3.61328h10.498v10.5957c0 2.19727 1.46484 3.71094 3.61328 3.71094 2.24609 0 3.71094-1.51367 3.71094-3.71094v-10.5957h10.5957c2.19727 0 3.71094-1.46484 3.71094-3.61328 0-2.19727-1.51367-3.71094-3.71094-3.71094h-10.5957v-10.5469c0-2.24609-1.46484-3.75977-3.71094-3.75977-2.14844 0-3.61328 1.51367-3.61328 3.75977v10.5469h-10.498c-2.24609 0-3.75977 1.51367-3.75977 3.71094Z"/>
  </g>
  <g transform="matrix(0.2 0 0 0.2 281.506 1933)">
   <path d="m58.5449 14.5508c27.4902 0 49.8047-22.3145 49.8047-49.8047s-22.3145-49.8047-49.8047-49.8047-49.8047 22.3145-49.8047 49.8047 22.3145 49.8047 49.8047 49.8047Zm0-8.30078c-22.9492 0-41.5039-18.5547-41.5039-41.5039s18.5547-41.5039 41.5039-41.5039 41.5039 18.5547 41.5039 41.5039-18.5547 41.5039-41.5039 41.5039Zm-22.6562-41.5039c0 2.39258 1.66016 4.00391 4.15039 4.00391h14.3555v14.4043c0 2.44141 1.66016 4.15039 4.05273 4.15039 2.44141 0 4.15039-1.66016 4.15039-4.15039v-14.4043h14.4043c2.44141 0 4.15039-1.61133 4.15039-4.00391 0-2.44141-1.70898-4.15039-4.15039-4.15039h-14.4043v-14.3555c0-2.49023-1.70898-4.19922-4.15039-4.19922-2.39258 0-4.05273 1.70898-4.05273 4.19922v14.3555h-14.3555c-2.49023 0-4.15039 1.70898-4.15039 4.15039Z"/>
  </g>
  <g transform="matrix(0.2 0 0 0.2 304.924 1933)">
   <path d="m74.8535 28.3203c35.1074 0 63.623-28.4668 63.623-63.5742s-28.5156-63.623-63.623-63.623-63.5742 28.5156-63.5742 63.623 28.4668 63.5742 63.5742 63.5742Zm0-9.08203c-30.127 0-54.4922-24.3652-54.4922-54.4922s24.3652-54.4922 54.4922-54.4922 54.4922 24.3652 54.4922 54.4922-24.3652 54.4922-54.4922 54.4922Zm-28.8574-54.4922c0 2.58789 1.85547 4.39453 4.58984 4.39453h19.7266v19.7754c0 2.68555 1.85547 4.58984 4.44336 4.58984 2.68555 0 4.54102-1.85547 4.54102-4.58984v-19.7754h19.7754c2.68555 0 4.58984-1.80664 4.58984-4.39453 0-2.73438-1.85547-4.58984-4.58984-4.58984h-19.7754v-19.7266c0-2.73438-1.85547-4.63867-4.54102-4.63867-2.58789 0-4.44336 1.9043-4.44336 4.63867v19.7266h-19.7266c-2.73438 0-4.58984 1.85547-4.58984 4.58984Z"/>
  </g>
  <text style="stroke:none;fill:black;font-family:sans-serif;font-size:13;font-weight:bold;" transform="matrix(1 0 0 1 263 1953)">Design Variations</text>
  <text style="stroke:none;fill:black;font-family:sans-serif;font-size:13;" transform="matrix(1 0 0 1 263 1971)">Symbols are supported in up to nine weights and three scales.</text>
  <text style="stroke:none;fill:black;font-family:sans-serif;font-size:13;" transform="matrix(1 0 0 1 263 1989)">For optimal layout with text and other symbols, vertically align</text>
  <text style="stroke:none;fill:black;font-family:sans-serif;font-size:13;" transform="matrix(1 0 0 1 263 2007)">symbols with the adjacent text.</text>
  <line style="fill:none;stroke:#00AEEF;stroke-width:0.5;opacity:1.0;" x1="776" x2="776" y1="1919" y2="1933"/>
  <g transform="matrix(0.2 0 0 0.2 776 1933)">
   <path d="m16.5527 0.78125c2.58789 0 3.85742-0.976562 4.78516-3.71094l6.29883-17.2363h28.8086l6.29883 17.2363c0.927734 2.73438 2.19727 3.71094 4.73633 3.71094 2.58789 0 4.24805-1.5625 4.24805-4.00391 0-0.830078-0.146484-1.61133-0.537109-2.63672l-22.9004-60.9863c-1.12305-2.97852-3.125-4.49219-6.25-4.49219-3.02734 0-5.07812 1.46484-6.15234 4.44336l-22.9004 61.084c-0.390625 1.02539-0.537109 1.80664-0.537109 2.63672 0 2.44141 1.5625 3.95508 4.10156 3.95508Zm13.4766-28.3691 11.8652-32.8613h0.244141l11.8652 32.8613Z"/>
  </g>
  <line style="fill:none;stroke:#00AEEF;stroke-width:0.5;opacity:1.0;" x1="792.836" x2="792.836" y1="1919" y2="1933"/>
  <text style="stroke:none;fill:black;font-family:sans-serif;font-size:13;font-weight:bold;" transform="matrix(1 0 0 1 776 1953)">Margins</text>
  <text style="stroke:none;fill:black;font-family:sans-serif;font-size:13;" transform="matrix(1 0 0 1 776 1971)">Leading and trailing margins on the left and right side of each symbol</text>
  <text style="stroke:none;fill:black;font-family:sans-serif;font-size:13;" transform="matrix(1 0 0 1 776 1989)">can be adjusted by modifying the x-location of the margin guidelines.</text>
  <text style="stroke:none;fill:black;font-family:sans-serif;font-size:13;" transform="matrix(1 0 0 1 776 2007)">Modifications are automatically applied proportionally to all</text>
  <text style="stroke:none;fill:black;font-family:sans-serif;font-size:13;" transform="matrix(1 0 0 1 776 2025)">scales and weights.</text>
  <g transform="matrix(0.2 0 0 0.2 1289 1933)">
   <path d="m14.209 9.32617 8.49609 8.54492c4.29688 4.3457 9.22852 4.05273 13.8672-1.07422l53.4668-58.9355-4.83398-4.88281-53.0762 58.3984c-1.75781 2.00195-3.41797 2.49023-5.76172 0.146484l-5.85938-5.81055c-2.34375-2.29492-1.80664-4.00391 0.195312-5.81055l57.373-54.0039-4.88281-4.83398-57.959 54.4434c-4.93164 4.58984-5.32227 9.47266-1.02539 13.8184Zm32.0801-90.9668c-2.09961 2.05078-2.24609 4.93164-1.07422 6.88477 1.17188 1.80664 3.4668 2.97852 6.68945 2.14844 7.32422-1.70898 14.9414-2.00195 22.0703 2.68555l-2.92969 7.27539c-1.70898 4.15039-0.830078 7.08008 1.85547 9.81445l11.4746 11.5723c2.44141 2.44141 4.49219 2.53906 7.32422 2.05078l5.32227-0.976562 3.32031 3.36914-0.195312 2.7832c-0.195312 2.49023 0.439453 4.39453 2.88086 6.78711l3.80859 3.71094c2.39258 2.39258 5.46875 2.53906 7.8125 0.195312l14.5508-14.5996c2.34375-2.34375 2.24609-5.32227-0.146484-7.71484l-3.85742-3.80859c-2.39258-2.39258-4.24805-3.17383-6.64062-2.97852l-2.88086 0.244141-3.22266-3.17383 1.2207-5.61523c0.634766-2.83203-0.146484-5.0293-3.07617-7.95898l-10.9863-10.9375c-16.6992-16.6016-38.8672-16.2109-53.3203-1.75781Zm7.4707 1.85547c12.1582-8.88672 28.6133-7.37305 39.7461 3.75977l12.1582 12.0605c1.17188 1.17188 1.36719 2.09961 1.02539 3.80859l-1.61133 7.42188 7.51953 7.42188 4.93164-0.292969c1.26953-0.0488281 1.66016 0.0488281 2.63672 1.02539l2.88086 2.88086-12.207 12.207-2.88086-2.88086c-0.976562-0.976562-1.12305-1.36719-1.07422-2.68555l0.341797-4.88281-7.4707-7.42188-7.61719 1.26953c-1.61133 0.341797-2.34375 0.195312-3.56445-0.976562l-10.0098-10.0098c-1.26953-1.17188-1.41602-2.00195-0.634766-3.85742l4.39453-10.4492c-7.8125-7.27539-17.9688-10.4004-28.125-7.42188-0.78125 0.195312-1.07422-0.439453-0.439453-0.976562Z"/>
  </g>
  <text style="stroke:none;fill:black;font-family:sans-serif;font-size:13;font-weight:bold;" transform="matrix(1 0 0 1 1289 1953)">Exporting</text>
  <text style="stroke:none;fill:black;font-family:sans-serif;font-size:13;" transform="matrix(1 0 0 1 1289 1971)">Symbols should be outlined when exporting to ensure the</text>
  <text style="stroke:none;fill:black;font-family:sans-serif;font-size:13;" transform="matrix(1 0 0 1 1289 1989)">design is preserved when submitting to Xcode.</text>
  <text id="template-version" style="stroke:none;fill:black;font-family:sans-serif;font-size:13;text-anchor:end;" transform="matrix(1 0 0 1 3036 1933)">Template v.6.0</text>
  <text style="stroke:none;fill:black;font-family:sans-serif;font-size:13;text-anchor:end;" transform="matrix(1 0 0 1 3036 1951)">Requires Xcode 16 or greater</text>
  <text id="descriptive-name" style="stroke:none;fill:black;font-family:sans-serif;font-size:13;text-anchor:end;" transform="matrix(1 0 0 1 3036 1969)">Generated from square</text>
  <text style="stroke:none;fill:black;font-family:sans-serif;font-size:13;text-anchor:end;" transform="matrix(1 0 0 1 3036 1987)">Typeset at 100.0 points</text>
  <text style="stroke:none;fill:black;font-family:sans-serif;font-size:13;" transform="matrix(1 0 0 1 263 726)">Small</text>
  <text style="stroke:none;fill:black;font-family:sans-serif;font-size:13;" transform="matrix(1 0 0 1 263 1156)">Medium</text>
  <text style="stroke:none;fill:black;font-family:sans-serif;font-size:13;" transform="matrix(1 0 0 1 263 1586)">Large</text>
 </g>
 <g id="Guides">
  <g id="H-reference" style="fill:#27AAE1;stroke:none;" transform="matrix(1 0 0 1 339 696)">
   <path d="M0.993654 0L3.63775 0L29.3281-67.1323L30.0303-67.1323L30.0303-70.459L28.1226-70.459ZM11.6885-24.4799L46.9815-24.4799L46.2315-26.7285L12.4385-26.7285ZM55.1196 0L57.7637 0L30.6382-70.459L29.4326-70.459L29.4326-67.1323Z"/>
  </g>
  <line id="Baseline-S" style="fill:none;stroke:#27AAE1;opacity:1;stroke-width:0.5;" x1="263" x2="3036" y1="696" y2="696"/>
  <line id="Capline-S" style="fill:none;stroke:#27AAE1;opacity:1;stroke-width:0.5;" x1="263" x2="3036" y1="625.541" y2="625.541"/>
  <g id="H-reference" style="fill:#27AAE1;stroke:none;" transform="matrix(1 0 0 1 339 1126)">
   <path d="M0.993654 0L3.63775 0L29.3281-67.1323L30.0303-67.1323L30.0303-70.459L28.1226-70.459ZM11.6885-24.4799L46.9815-24.4799L46.2315-26.7285L12.4385-26.7285ZM55.1196 0L57.7637 0L30.6382-70.459L29.4326-70.459L29.4326-67.1323Z"/>
  </g>
  <line id="Baseline-M" style="fill:none;stroke:#27AAE1;opacity:1;stroke-width:0.5;" x1="263" x2="3036" y1="1126" y2="1126"/>
  <line id="Capline-M" style="fill:none;stroke:#27AAE1;opacity:1;stroke-width:0.5;" x1="263" x2="3036" y1="1055.54" y2="1055.54"/>
  <g id="H-reference" style="fill:#27AAE1;stroke:none;" transform="matrix(1 0 0 1 339 1556)">
   <path d="M0.993654 0L3.63775 0L29.3281-67.1323L30.0303-67.1323L30.0303-70.459L28.1226-70.459ZM11.6885-24.4799L46.9815-24.4799L46.2315-26.7285L12.4385-26.7285ZM55.1196 0L57.7637 0L30.6382-70.459L29.4326-70.459L29.4326-67.1323Z"/>
  </g>
  <line id="Baseline-L" style="fill:none;stroke:#27AAE1;opacity:1;stroke-width:0.5;" x1="263" x2="3036" y1="1556" y2="1556"/>
  <line id="Capline-L" style="fill:none;stroke:#27AAE1;opacity:1;stroke-width:0.5;" x1="263" x2="3036" y1="1485.54" y2="1485.54"/>
  <line id="right-margin-Black-S" style="fill:none;stroke:#00AEEF;stroke-width:0.5;opacity:1.0;" x1="2981.3" x2="2981.3" y1="600.785" y2="720.121"/>
  <line id="left-margin-Black-S" style="fill:none;stroke:#00AEEF;stroke-width:0.5;opacity:1.0;" x1="2885.5" x2="2885.5" y1="600.785" y2="720.121"/>
  <line id="right-margin-Regular-S" style="fill:none;stroke:#00AEEF;stroke-width:0.5;opacity:1.0;" x1="1495.18" x2="1495.18" y1="600.785" y2="720.121"/>
  <line id="left-margin-Regular-S" style="fill:none;stroke:#00AEEF;stroke-width:0.5;opacity:1.0;" x1="1404.51" x2="1404.51" y1="600.785" y2="720.121"/>
  <line id="right-margin-Ultralight-S" style="fill:none;stroke:#00AEEF;stroke-width:0.5;opacity:1.0;" x1="603.073" x2="603.073" y1="600.785" y2="720.121"/>
  <line id="left-margin-Ultralight-S" style="fill:none;stroke:#00AEEF;stroke-width:0.5;opacity:1.0;" x1="516.35" x2="516.35" y1="600.785" y2="720.121"/>
 </g>
 <g id="Symbols">
  <g id="Black-S" transform="matrix(1 0 0 1 2885.5 696)">
   <path class="monochrome-0 multicolor-0:tintColor hierarchical-0:secondary SFSymbolsPreviewWireframe" d="M25 2.88086L70.8008 2.88086C80.3711 2.88086 86.0352-2.7832 86.0352-12.3535L86.0352-58.1543C86.0352-67.7246 80.3711-73.3887 70.8008-73.3887L25-73.3887C15.4297-73.3887 9.76562-67.7246 9.76562-58.1543L9.76562-12.3535C9.76562-2.7832 15.4297 2.88086 25 2.88086ZM27.2461-11.2793C25-11.2793 23.9258-12.1582 23.9258-14.5996L23.9258-55.9082C23.9258-58.3496 25-59.2285 27.2461-59.2285L68.5547-59.2285C70.8008-59.2285 71.875-58.3496 71.875-55.9082L71.875-14.5996C71.875-12.1582 70.8008-11.2793 68.5547-11.2793Z"/>
   <path class="monochrome-1 multicolor-1:tintColor hierarchical-1:primary SFSymbolsPreviewWireframe" d="M39.9721-27.6193C41.5626-28.0899 42.4964-29.6559 42.0591-31.4184L40.565-37.3961C40.2998-38.4659 39.7514-39.2187 38.8904-39.7032C37.9991-40.2137 37.1077-40.3324 36.0105-40.0109L30.0832-38.3079C28.3237-37.8113 27.4143-36.1296 27.8804-34.5377C28.3785-32.8894 30.0298-31.9281 31.8197-32.4796L35.3231-33.5721L36.1745-30.02C36.6162-28.1448 38.2919-27.1227 39.9721-27.6193ZM33.8112-16.9341L40.2752-16.9341C42.4381-16.9341 44.0161-18.5121 44.0161-20.6765C44.0161-22.8424 42.4381-24.4189 40.2752-24.4189L35.3107-24.4189C35.0479-24.4189 34.8899-24.4177 34.8899-24.6237C34.8899-24.8851 35.0987-25.2501 35.2227-25.4462L39.3953-33.0252L32.8244-36.7083L27.9088-27.922C27.2349-26.7039 26.5783-25.577 26.5783-24.0163C26.5783-20.232 29.0367-16.9341 33.8112-16.9341ZM52.665-39.8577L59.0609-43.7113L53.7903-53.1314C52.473-55.4414 50.2223-56.5408 47.9138-56.5408C45.5992-56.5408 43.3501-55.5008 42.0098-53.1314L38.6932-47.2195C37.6436-45.3428 38.0185-43.1769 39.9636-42.1244C41.9055-41.0734 44.0061-41.5655 45.0571-43.48L47.4223-47.7906C47.4891-47.9239 47.7197-47.9629 47.8848-47.9629C48.047-47.9629 48.2501-47.8965 48.3214-47.7617ZM55.883-36.432C56.9224-36.1363 57.8411-36.258 58.7006-36.7396C59.595-37.2531 60.1419-37.9769 60.4071-39.0757L61.9012-45.0533C62.34-46.8432 61.3483-48.4686 59.7274-48.851C58.0487-49.2653 56.4004-48.298 55.9876-46.4822L55.1666-42.9027L51.6907-43.9343C49.8415-44.4888 48.1034-43.5535 47.6951-41.8489C47.3142-40.2265 48.1947-38.633 49.9527-38.135ZM50.9839-16.9341L61.9874-16.9341C66.7619-16.9341 69.2188-20.232 69.2188-24.0163C69.2188-25.577 68.5896-26.6475 67.8883-27.922L65.0483-32.9872C64.0003-34.8653 61.8389-35.4487 59.9548-34.3977C58.0661-33.3467 57.4888-31.1 58.4849-29.3011L60.5759-25.4462C60.6998-25.2501 60.9087-24.8851 60.9087-24.6237C60.9087-24.4177 60.7536-24.4189 60.4894-24.4189L50.9839-24.4189ZM52.4511-13.612C53.6287-12.4953 55.5298-12.5197 56.6815-13.7277C57.8606-14.9692 57.8317-16.8643 56.4835-18.1591L53.7967-20.6765L56.4546-23.1665C57.8606-24.4903 57.8895-26.4417 56.6236-27.6542C55.443-28.8044 53.5997-28.8288 52.3064-27.5675L47.8703-23.2912C47.0686-22.5141 46.6968-21.6716 46.6968-20.6765C46.6968-19.6526 47.0686-18.8085 47.8703-18.0328Z"/>
  </g>
  <g id="Regular-S" transform="matrix(1 0 0 1 1404.51 696)">
   <path class="monochrome-0 multicolor-0:tintColor hierarchical-0:secondary SFSymbolsPreviewWireframe" d="M22.2168 0.390625L68.457 0.390625C76.8066 0.390625 80.9082-3.71094 80.9082-11.9141L80.9082-58.4961C80.9082-66.6992 76.8066-70.8008 68.457-70.8008L22.2168-70.8008C13.916-70.8008 9.76562-66.6992 9.76562-58.4961L9.76562-11.9141C9.76562-3.71094 13.916 0.390625 22.2168 0.390625ZM22.3145-6.68945C18.7988-6.68945 16.7969-8.59375 16.7969-12.2559L16.7969-58.1543C16.7969-61.8652 18.7988-63.7207 22.3145-63.7207L68.3594-63.7207C71.875-63.7207 73.877-61.8652 73.877-58.1543L73.877-12.2559C73.877-8.59375 71.875-6.68945 68.3594-6.68945Z"/>
   <path class="monochrome-1 multicolor-1:tintColor hierarchical-1:primary SFSymbolsPreviewWireframe" d="M36.6548-27.6276C37.8707-27.9402 38.5654-29.1316 38.2232-30.4047L36.6759-36.6273C36.4499-37.4776 36.0469-38.0808 35.3551-38.4563C34.665-38.8717 33.975-38.9513 33.0987-38.6871L26.9404-36.9224C25.6395-36.5699 24.9692-35.33 25.3235-34.1575C25.6621-32.9174 26.9039-32.1966 28.1735-32.6013L32.7748-33.9917L33.8639-29.3417C34.1643-27.9923 35.4305-27.275 36.6548-27.6276ZM30.9212-17.1984L39.3879-17.1984C40.902-17.1984 42.0115-18.2786 42.0115-19.7788C42.0115-21.265 40.902-22.3591 39.3879-22.3591L31.5643-22.3591C30.7857-22.3591 30.26-22.9157 30.26-23.6153C30.26-23.906 30.389-24.2681 30.538-24.5451L36.0142-34.3998L31.5116-36.9697L25.6954-26.5654C25.1279-25.5417 24.6951-24.5421 24.6951-23.3606C24.6951-19.9605 26.9354-17.1984 30.9212-17.1984ZM52.2742-38.6911L56.7179-41.3322L50.5493-52.337C49.4125-54.3743 47.3854-55.3773 45.3342-55.3773C43.2796-55.3773 41.2681-54.3847 40.1223-52.337L35.7524-44.534C34.9797-43.169 35.3099-41.7122 36.6312-40.9673C37.9509-40.2379 39.453-40.6322 40.1824-41.9553L44.1536-49.1001C44.3895-49.5311 44.8773-49.7295 45.322-49.7295C45.7651-49.7295 46.2269-49.5345 46.4799-49.088ZM53.8456-36.9359C54.6977-36.7116 55.4137-36.7634 56.09-37.1667C56.7817-37.5837 57.1986-38.1454 57.4247-39.0078L58.9719-45.2304C59.3002-46.5295 58.5812-47.7313 57.3671-48.0214C56.1288-48.3253 54.8887-47.6307 54.6004-46.3211L53.5095-41.645L48.9344-43.0096C47.6249-43.4158 46.3762-42.7055 46.0462-41.4567C45.7422-40.2566 46.4003-39.0686 47.6857-38.7005ZM47.4802-17.1984L59.735-17.1984C63.7208-17.1984 65.9749-19.9605 65.9749-23.3606C65.9749-24.5421 65.5682-25.5036 64.9746-26.5654L60.9794-33.7215C60.2223-35.0726 58.7237-35.4321 57.4283-34.7027C56.1452-33.9733 55.73-32.4245 56.4368-31.15L60.1181-24.5451C60.2672-24.2681 60.3962-23.906 60.3962-23.6153C60.3962-22.9157 59.8721-22.3591 59.078-22.3591L47.4802-22.3591ZM50.4107-13.2021C51.3087-12.33 52.7275-12.3544 53.5856-13.2506C54.4697-14.1467 54.4576-15.5623 53.4884-16.4949L49.9904-19.7788L53.4763-23.0365C54.4697-23.9813 54.4819-25.435 53.5614-26.319C52.6911-27.191 51.2966-27.2154 50.35-26.2826L45.7669-21.8385C45.1148-21.2109 44.8157-20.5697 44.8157-19.7788C44.8157-18.9757 45.1148-18.3189 45.7669-17.7069Z"/>
  </g>
  <g id="Ultralight-S" transform="matrix(1 0 0 1 516.35 696)">
   <path class="monochrome-0 multicolor-0:tintColor hierarchical-0:secondary SFSymbolsPreviewWireframe" d="M19.7647-1.65282L66.9585-1.65282C73.4917-1.65282 76.9576-5.20946 76.9576-11.6416L76.9576-58.8594C76.9576-65.2915 73.4917-68.8482 66.9585-68.8482L19.7647-68.8482C13.2349-68.8482 9.76562-65.3823 9.76562-58.8594L9.76562-11.6416C9.76562-5.11864 13.2349-1.65282 19.7647-1.65282ZM19.8623-3.87405C14.6665-3.87405 11.9834-6.55031 11.9834-11.7564L11.9834-58.7446C11.9834-63.9541 14.6665-66.6269 19.8623-66.6269L66.8609-66.6269C71.875-66.6269 74.7397-63.9541 74.7397-58.7446L74.7397-11.7564C74.7397-6.55031 71.875-3.87405 66.8609-3.87405Z"/>
   <path class="monochrome-1 multicolor-1:tintColor hierarchical-1:primary SFSymbolsPreviewWireframe" d="M34.339-29.18C34.8638-29.3033 35.1606-29.8037 35.0072-30.3329L33.3915-36.6574C33.2537-37.1539 33.0759-37.4839 32.7014-37.6906C32.337-37.9172 31.9726-37.9085 31.466-37.7607L25.186-36.0117C24.6367-35.8682 24.3643-35.3679 24.5178-34.8587C24.6512-34.3339 25.1615-34.0271 25.6951-34.1905L31.705-35.9314L33.176-29.8726C33.2994-29.3234 33.8342-29.0365 34.339-29.18ZM28.4485-17.5245L39.5031-17.5245C40.068-17.5245 40.4939-17.9447 40.4939-18.4996C40.4939-19.0445 40.068-19.4747 39.5031-19.4747L28.4729-19.4747C26.8262-19.4747 25.6895-20.8398 25.6895-22.3313C25.6895-22.7782 25.8059-23.2883 26.0632-23.774L33.1417-36.4587L31.4395-37.4438L24.3122-24.7147C23.8815-23.9365 23.6705-23.1339 23.6705-22.3313C23.6705-19.7344 25.573-17.5245 28.4485-17.5245ZM53.0334-37.3979L54.7456-38.3974L47.4779-51.3427C46.6064-52.9579 44.9812-53.7561 43.356-53.7561C41.7595-53.7561 40.1299-52.9479 39.2297-51.3427L33.6035-41.3327C33.301-40.7879 33.4788-40.2487 33.9591-39.9662C34.4539-39.6794 35.0432-39.8529 35.33-40.3432L40.9419-50.4064C41.4952-51.3678 42.409-51.7715 43.356-51.7715C44.3173-51.7715 45.2212-51.3634 45.7557-50.4064ZM53.0398-37.1198C53.5464-36.9921 53.9208-36.9633 54.2996-37.19C54.6497-37.4023 54.8376-37.7266 54.9753-38.2231L56.591-44.5476C56.7344-45.0868 56.4376-45.5772 55.9228-45.7106C55.408-45.8296 54.8832-45.5571 54.7598-45.0036L53.2788-38.9348L47.2789-40.69C46.7497-40.8391 46.245-40.5466 46.0915-40.0174C45.9481-39.5127 46.2206-39.0079 46.7741-38.8689ZM43.9186-17.5245L58.2635-17.5245C61.139-17.5245 63.0515-19.7344 63.0515-22.3313C63.0515-23.1339 62.8505-23.9265 62.4098-24.7147L56.8894-34.5673C56.5826-35.1022 56.0133-35.2399 55.5186-34.9531C55.0483-34.6663 54.8704-34.087 55.1428-33.5966L60.6488-23.774C60.906-23.2883 61.0224-22.7782 61.0224-22.3313C61.0224-20.8398 59.8714-19.4747 58.229-19.4747L43.9186-19.4747ZM48.2966-12.8309C48.6924-12.4207 49.2674-12.4451 49.6431-12.8309C50.0289-13.1922 50.0289-13.7959 49.6187-14.1817L45.1142-18.4996L49.6187-22.8075C50.0289-23.1933 50.0289-23.807 49.6431-24.1683C49.2674-24.5541 48.6924-24.5785 48.2966-24.1683L43.6523-19.6029C43.2735-19.2485 43.0869-18.9329 43.0869-18.4996C43.0869-18.0663 43.2735-17.7551 43.6523-17.3963Z"/>
  </g>
 </g>
</svg>
